<svg xmlns="http://www.w3.org/2000/svg" viewBox="0 0 1200 600" role="img" aria-label="RED LIGHT editorial illustration"><defs><linearGradient id="bg" x2="1" y2="1"><stop stop-color="#0c1d19"/><stop offset=".6" stop-color="#6e3a39"/><stop offset="1" stop-color="#08130f"/></linearGradient><radialGradient id="glow"><stop stop-color="#e6c899" stop-opacity=".23"/><stop offset="1" stop-color="#e6c899" stop-opacity="0"/></radialGradient></defs><rect width="1200" height="600" fill="url(#bg)"/><circle cx="870" cy="300" r="300" fill="url(#glow)"/><g opacity=".17" stroke="#d8bd8d" stroke-width="1"><path d="M650 0v600"/><path d="M682 0v600"/><path d="M714 0v600"/><path d="M746 0v600"/><path d="M778 0v600"/><path d="M810 0v600"/><path d="M842 0v600"/><path d="M874 0v600"/><path d="M906 0v600"/><path d="M938 0v600"/><path d="M970 0v600"/><path d="M1002 0v600"/><path d="M1034 0v600"/><path d="M1066 0v600"/><path d="M1098 0v600"/></g><circle cx='862' cy='315' r='174' fill='#e67658' opacity='.2'/><circle cx='862' cy='315' r='118' fill='#ef8a66' opacity='.35'/><circle cx='862' cy='315' r='61' fill='#f6b27e'/><g stroke='#eea175' stroke-width='3' opacity='.7'><path d='M862 82v100M862 448v100M630 315h100M995 315h100M700 152l72 72M954 406l72 72M1027 152l-72 72M773 406l-72 72'/></g><text x="72" y="135" fill="#cdb88f" font-size="21" letter-spacing="7" font-weight="700" font-family="Arial,sans-serif">YOUTOPIA LIFE / RESEARCH</text><text x="72" y="356" fill="#faf2e5" font-size="58" font-weight="700" font-family="Arial,sans-serif">RED LIGHT</text><text x="74" y="406" fill="#e2d4bb" font-size="24" letter-spacing="2" font-family="Arial,sans-serif">Protocol matters</text><path d="M72 460h460" stroke="#cba578" stroke-width="2"/><text x="74" y="518" fill="#d7c4a6" font-size="15" letter-spacing="4" font-family="Arial,sans-serif">CURIOUS. RIGOROUS. OPEN.</text></svg>